<svg height="512" viewBox="0 0 256 256" width="512" xmlns="http://www.w3.org/2000/svg"><path d="M200.578 81.242H55.422c-8.284 0-15-6.716-15-15s6.716-15 15-15h145.156c8.284 0 15 6.716 15 15s-6.716 15-15 15z" fill="#ffa91a"/><path d="M46.42 68.24c-1.1 0-2-.9-2-2s.9-2 2-2 1.99.89 2 1.99v.01c0 1.1-.9 2-2 2zm3.33-6.98c-.6 0-1.17-.27-1.55-.74-.7-.86-.57-2.12.29-2.81 1.95-1.59 4.41-2.47 6.92-2.47h134.85a2 2 0 110 4H55.42a6.9 6.9 0 00-4.41 1.57c-.35.29-.8.45-1.26.45z" fill="#ffc91d"/><path d="M204.935 51.885c.418 1.379.643 2.842.643 4.357 0 8.284-6.716 15-15 15H45.422c-1.515 0-2.978-.225-4.357-.643 1.867 6.159 7.588 10.643 14.357 10.643h145.156c8.284 0 15-6.716 15-15 0-6.769-4.484-12.491-10.643-14.357z" fill="#f79219"/><path d="M200.578 143H55.422c-8.284 0-15-6.716-15-15s6.716-15 15-15h145.156c8.284 0 15 6.716 15 15s-6.716 15-15 15z" fill="#ffa91a"/><path d="M204.935 113.643c.418 1.379.643 2.842.643 4.357 0 8.284-6.716 15-15 15H45.422c-1.515 0-2.978-.225-4.357-.643C42.932 138.516 48.653 143 55.422 143h145.156c8.284 0 15-6.716 15-15 0-6.769-4.484-12.49-10.643-14.357z" fill="#f79219"/><path d="M200.578 204.758H55.422c-8.284 0-15-6.716-15-15s6.716-15 15-15h145.156c8.284 0 15 6.716 15 15s-6.716 15-15 15z" fill="#ffa91a"/><path d="M204.935 175.401c.418 1.379.643 2.842.643 4.357 0 8.284-6.716 15-15 15H45.422c-1.515 0-2.978-.225-4.357-.643 1.867 6.159 7.588 10.643 14.357 10.643h145.156c8.284 0 15-6.716 15-15 0-6.768-4.484-12.49-10.643-14.357z" fill="#f79219"/><path d="M208.387 176.949a14.927 14.927 0 012.191 7.809c0 8.284-6.716 15-15 15H50.422c-2.861 0-5.534-.801-7.809-2.191 2.635 4.312 7.386 7.191 12.809 7.191h145.156c8.284 0 15-6.716 15-15 0-5.423-2.879-10.174-7.191-12.809z" fill="#ef7816"/></svg>