<svg height="512" width="512" xmlns="http://www.w3.org/2000/svg"><linearGradient id="a" gradientUnits="userSpaceOnUse" x1="256" x2="256" y1="512" y2="0"><stop offset="0" stop-color="#ffe59a"/><stop offset="1" stop-color="#ffffd5"/></linearGradient><linearGradient id="b" gradientUnits="userSpaceOnUse" x1="256" x2="256" y1="407" y2="105"><stop offset="0" stop-color="#ffde00"/><stop offset="1" stop-color="#fd5900"/></linearGradient><circle cx="256" cy="256" fill="url(#a)" r="256"/><path d="M229.353 131.647c0-14.694-11.953-26.647-26.647-26.647h-71.059C116.953 105 105 116.953 105 131.647v26.647h124.353zm-115.471 97.706h8.882v8.882a8.877 8.877 0 008.882 8.882 8.877 8.877 0 008.882-8.882v-8.882h53.294v8.882a8.877 8.877 0 008.882 8.882 8.877 8.877 0 008.882-8.882v-8.882h8.882a8.877 8.877 0 008.882-8.882v-44.412H105v44.412a8.877 8.877 0 008.882 8.882zm230.941 35.529c-4.892 0-8.882 3.981-8.882 8.882s3.99 8.882 8.882 8.882 8.882-3.981 8.882-8.882c.001-4.9-3.989-8.882-8.882-8.882zm0-53.294c-34.28 0-62.177 27.896-62.177 62.177 0 13.566 4.285 26.456 12.404 37.273l42.66 56.877c1.683 2.238 4.32 3.556 7.113 3.556s5.43-1.318 7.113-3.556l42.66-56.868C402.715 300.221 407 287.331 407 273.765c0-34.281-27.896-62.177-62.177-62.177zm0 88.824c-14.694 0-26.647-11.953-26.647-26.647s11.953-26.647 26.647-26.647 26.647 11.953 26.647 26.647c.001 14.694-11.952 26.647-26.647 26.647zm0 88.823H140.529c-9.802 0-17.765-7.972-17.765-17.765s7.963-17.765 17.765-17.765h88.824c19.586 0 35.529-15.934 35.529-35.529s-15.943-35.529-35.529-35.529h-26.647c-14.694 0-26.647-11.953-26.647-26.647a8.877 8.877 0 00-8.882-8.882 8.877 8.877 0 00-8.882 8.882c0 24.487 19.916 44.412 44.412 44.412h26.647c9.802 0 17.765 7.972 17.765 17.765s-7.963 17.765-17.765 17.765H140.53c-19.586 0-35.529 15.934-35.529 35.529S120.943 407 140.529 407h204.294a8.877 8.877 0 008.882-8.882 8.876 8.876 0 00-8.882-8.883z" fill="url(#b)"/></svg>