<svg xmlns="http://www.w3.org/2000/svg" viewBox="0 0 512 512"><path d="M108.55 395.58c-3.529 1.841-6.89-2.717-4.091-5.545l60.42-61.025c3.396-3.027 6.173-9.224 6.173-13.773l.069-264.035c-.003-4.55-3.563-9.367-7.912-10.702L65.364 10.543c-4.351-1.328-7.91 1.309-7.91 5.858v400.561c0 4.55 3.048 10.407 6.774 13.018l99.431 69.682c3.726 2.611 9.97 2.843 13.88.514l269.902-160.792c3.907-2.329 7.107-7.955 7.107-12.505l-.011-105.447c0-4.55-3.558-9.364-7.907-10.699l-233.8-71.608c-4.351-1.332-6.349.96-4.44 5.088l43.502 94.458c1.904 4.129 6.856 9.044 10.999 10.918l59.645 27.018c4.146 1.871 4.245 5.136.22 7.257L108.55 395.58z" fill="#ffd430"/><g fill="#e68c22"><path d="M171.085 512c-4.743 0-9.502-1.34-13.28-3.987l-99.431-69.682c-6.443-4.515-11.12-13.501-11.12-21.37V16.401c0-5.435 2.353-10.294 6.455-13.33C57.81.034 63.141-.799 68.341.789l97.854 29.962c8.619 2.647 15.118 11.435 15.126 20.445l-.069 264.046c0 7.315-3.899 16.135-9.313 21.135l-29.975 30.275 164.84-85.971-48.124-21.799c-6.37-2.881-13.123-9.585-16.053-15.938l-43.503-94.463c-2.628-5.683-2.089-11.505 1.45-15.562 3.539-4.056 9.232-5.383 15.237-3.545l233.802 71.609c8.622 2.649 15.119 11.439 15.119 20.451l.012 105.446c0 8.148-5.081 17.091-12.084 21.266L182.757 508.939c-3.439 2.048-7.551 3.061-11.672 3.061zM67.652 21.91v395.051c.001 1.218 1.43 3.965 2.428 4.664l99.431 69.683c.568.322 2.216.383 2.852.081L442.22 330.622c.858-.548 2.096-2.724 2.129-3.751l-.012-105.33c-.093-.342-.507-.901-.806-1.089L223.723 153.13l37.431 81.277c.871 1.89 4.037 5.031 5.939 5.891l59.649 27.02c5.568 2.512 8.997 7.192 9.16 12.513.162 5.322-2.975 10.203-8.394 13.059L113.266 404.623a13.616 13.616 0 01-17.342-4.01 13.617 13.617 0 011.288-17.753l60.42-61.024c.149-.15.303-.296.461-.438 1.213-1.082 2.762-4.535 2.762-6.16l.069-263.918c-.093-.345-.51-.91-.812-1.099L67.652 21.91z"/><path d="M91.8 236.613c-5.632 0-10.199-4.567-10.199-10.199v-6.12c0-5.632 4.567-10.199 10.199-10.199s10.199 4.567 10.199 10.199v6.12c-.001 5.632-4.567 10.199-10.199 10.199zm0-40.796c-5.632 0-10.199-4.567-10.199-10.199V58.134c0-5.632 4.567-10.199 10.199-10.199s10.199 4.567 10.199 10.199v127.485c-.001 5.631-4.567 10.198-10.199 10.198z"/></g></svg>